<svg width="390" height="100" viewBox="0 0 390 100" fill="none" xmlns="http://www.w3.org/2000/svg">
<path d="M0 0V99.94H50C49.9829 93.0547 51.4067 86.2421 54.18 79.94C55.7179 76.4071 57.6717 73.0702 60 70C62.8427 66.2097 66.2097 62.8427 70 60C73.0839 57.6627 76.4421 55.7115 80 54.19C86.3021 51.4167 93.1147 49.9929 100 50.01V0H0ZM80 32.88C74.3551 34.5664 68.9457 36.9586 63.9 40C62.56 40.8 61.24 41.66 59.96 42.56C53.1602 47.2918 47.2579 53.1974 42.53 60C41.63 61.28 40.77 62.6 39.97 63.94C36.9421 68.9746 34.56 74.3704 32.88 80H20V20H80V32.88Z" fill="#F28544"/>
<path d="M99.94 70V100H70C69.9806 92.6225 72.6912 85.4986 77.61 80C78.37 79.16 79.17 78.38 79.99 77.62C85.4762 72.7124 92.5791 69.9995 99.94 70Z" fill="#84D3F2"/>
<path d="M125.26 20H141.78C148.38 20 153.137 20.6067 156.05 21.82C158.919 23.0036 161.333 25.0747 162.94 27.73C164.682 30.6922 165.555 34.0848 165.46 37.52C165.594 41.2884 164.429 44.9885 162.16 48C159.86 50.8549 156.706 52.898 153.16 53.83C150.95 54.46 142.57 54.77 136.72 54.77V80.34H125.26V20ZM136.75 43.6H144.75C146.77 43.7016 148.794 43.4925 150.75 42.98C151.823 42.6112 152.751 41.9108 153.4 40.98C154.076 39.9619 154.425 38.7617 154.4 37.54C154.468 36.5219 154.25 35.5051 153.771 34.604C153.293 33.703 152.572 32.9535 151.69 32.44C150.38 31.64 147.94 31.24 144.39 31.24H136.81L136.75 43.6Z" fill="black"/>
<path d="M212.29 61.26H176.29C176.692 64.2137 178.178 66.9122 180.46 68.83C182.911 70.7697 185.977 71.7667 189.1 71.64C191.101 71.6687 193.087 71.2949 194.941 70.5408C196.794 69.7866 198.478 68.6675 199.89 67.25L209.33 71.68C207.194 74.8324 204.284 77.3838 200.88 79.09C197.213 80.7699 193.212 81.5907 189.18 81.49C182.173 81.49 176.467 79.28 172.06 74.86C169.887 72.6883 168.18 70.0959 167.043 67.2416C165.907 64.3873 165.365 61.3311 165.45 58.26C165.351 55.1291 165.883 52.0103 167.016 49.0896C168.148 46.1689 169.857 43.5061 172.04 41.26C174.174 39.0497 176.745 37.3081 179.589 36.146C182.434 34.9838 185.489 34.4267 188.56 34.51C195.593 34.51 201.313 36.76 205.72 41.26C210.127 45.76 212.33 51.7033 212.33 59.09L212.29 61.26ZM201.09 52.43C200.367 49.9653 198.821 47.8229 196.71 46.36C194.5 44.7835 191.844 43.9564 189.13 44C186.173 43.9433 183.28 44.8643 180.9 46.62C179.078 48.1854 177.667 50.1734 176.79 52.41L201.09 52.43Z" fill="black"/>
<path d="M252.47 18.45H263.68V80.34H252.47V75.62C250.572 77.5092 248.341 79.0314 245.89 80.11C243.623 81.0436 241.192 81.5128 238.74 81.49C235.906 81.5054 233.101 80.9146 230.514 79.7574C227.927 78.6001 225.617 76.903 223.74 74.78C219.517 70.2707 217.245 64.2758 217.42 58.1C217.42 51.2 219.457 45.5333 223.53 41.1C225.383 38.9965 227.668 37.3178 230.229 36.1787C232.79 35.0396 235.567 34.467 238.37 34.5C240.995 34.4791 243.594 35.0106 246 36.06C248.449 37.1378 250.664 38.6834 252.52 40.61L252.47 18.45ZM240.69 44.88C239.073 44.8396 237.466 45.1462 235.977 45.7793C234.488 46.4124 233.153 47.3572 232.06 48.55C229.719 51.1265 228.486 54.5216 228.63 58C228.498 61.5085 229.752 64.928 232.12 67.52C233.207 68.7217 234.539 69.6771 236.026 70.3221C237.512 70.9672 239.12 71.2869 240.74 71.26C242.376 71.3015 244.002 70.9949 245.51 70.3604C247.019 69.726 248.375 68.7783 249.49 67.58C250.681 66.2816 251.604 64.7608 252.207 63.1049C252.809 61.4489 253.079 59.6903 253 57.93C253.076 56.2042 252.808 54.4806 252.21 52.8597C251.613 51.2389 250.698 49.7534 249.52 48.49C248.385 47.3013 247.011 46.3654 245.49 45.7433C243.968 45.1213 242.333 44.8271 240.69 44.88Z" fill="black"/>
<path d="M306.11 18.45H317.32V80.34H306.11V75.62C304.212 77.5092 301.981 79.0314 299.53 80.11C297.263 81.0436 294.832 81.5128 292.38 81.49C289.546 81.5054 286.741 80.9146 284.154 79.7574C281.567 78.6001 279.257 76.903 277.38 74.78C273.171 70.2644 270.914 64.2702 271.1 58.1C271.1 51.2 273.137 45.5333 277.21 41.1C279.063 38.9965 281.348 37.3178 283.909 36.1787C286.47 35.0396 289.247 34.467 292.05 34.5C294.641 34.479 297.209 34.9966 299.59 36.02C302.039 37.0978 304.254 38.6434 306.11 40.57V18.45ZM294.33 44.88C292.713 44.8396 291.106 45.1462 289.617 45.7793C288.128 46.4124 286.793 47.3572 285.7 48.55C283.359 51.1265 282.126 54.5216 282.27 58C282.138 61.5085 283.392 64.928 285.76 67.52C286.845 68.7215 288.175 69.6768 289.66 70.3218C291.145 70.9669 292.751 71.2868 294.37 71.26C296.007 71.3023 297.635 70.9961 299.146 70.3616C300.656 69.7272 302.014 68.779 303.13 67.58C305.517 64.9603 306.769 61.5009 306.61 57.96C306.686 56.2342 306.418 54.5106 305.82 52.8897C305.223 51.2689 304.308 49.7834 303.13 48.52C302.001 47.3297 300.634 46.3904 299.117 45.7633C297.601 45.1362 295.97 44.8352 294.33 44.88Z" fill="black"/>
<path d="M325.56 18.45H336.77V80.34H325.56V18.45Z" fill="black"/>
<path d="M389.83 61.26H353.83C354.231 64.2137 355.718 66.9122 358 68.83C360.451 70.7697 363.517 71.7667 366.64 71.64C368.641 71.6687 370.627 71.2949 372.481 70.5408C374.334 69.7866 376.017 68.6675 377.43 67.25L386.87 71.68C384.732 74.8349 381.819 77.3867 378.41 79.09C374.747 80.7711 370.749 81.592 366.72 81.49C359.713 81.49 354.007 79.28 349.6 74.86C347.429 72.6874 345.723 70.0947 344.589 67.2404C343.454 64.3862 342.913 61.3304 343 58.26C342.901 55.1291 343.433 52.0103 344.566 49.0896C345.698 46.1689 347.406 43.5061 349.59 41.26C351.724 39.0497 354.295 37.3081 357.139 36.146C359.984 34.9838 363.039 34.4267 366.11 34.51C373.137 34.51 378.857 36.76 383.27 41.26C387.683 45.76 389.883 51.7033 389.87 59.09L389.83 61.26ZM378.63 52.43C377.907 49.9653 376.361 47.8229 374.25 46.36C372.038 44.7815 369.377 43.9543 366.66 44C363.706 43.9448 360.817 44.8657 358.44 46.62C356.618 48.1854 355.207 50.1734 354.33 52.41L378.63 52.43Z" fill="black"/>
</svg>
