<svg width="177" height="177" viewBox="0 0 177 177" fill="none" xmlns="http://www.w3.org/2000/svg">
<path d="M117.719 40.7929C118.224 40.7307 118.21 40.627 117.989 40.6892C117.911 40.729 117.83 40.7615 117.747 40.786L117.719 40.7929Z" fill="white"/>
<path d="M134.43 139.159L134.658 139.035C135.156 138.758 135.661 138.496 136.179 138.247L136.366 138.164L136.954 137.929L137.189 137.846L137.77 137.687C138.012 137.645 138.26 137.617 138.502 137.569C137.41 137.797 138.254 137.611 138.565 137.569H138.613C138.516 137.569 138.496 137.569 138.744 137.569C138.804 137.577 138.865 137.577 138.924 137.569H138.772L139.464 137.638L139.858 137.728C140.079 137.79 140.3 137.859 140.549 137.936C140.66 137.97 140.769 138.011 140.874 138.06H140.95L141.095 138.143C141.987 138.631 142.764 139.302 143.377 140.113C144.363 141.681 145 143.443 145.244 145.278C145.97 149.122 146.129 153.174 148.832 156.258C149.219 156.7 150.533 156.645 150.975 156.624C152.088 156.561 153.184 156.328 154.225 155.933C155.013 155.615 157.682 154.55 156.645 153.354C154.031 150.367 154.19 145.748 153.361 142.098C152.99 140.148 152.129 138.326 150.858 136.802C149.24 134.976 146.82 134.16 144.449 133.946C138.406 133.4 132.397 135.93 127.357 139.035C123.44 141.578 119.721 144.414 116.232 147.518L113.688 149.676L112.43 150.727L112.146 150.962L111.51 151.48C109.788 152.863 108.053 154.246 106.179 155.449C105.751 155.739 105.315 156.016 104.879 156.285C104.658 156.424 104.437 156.562 104.188 156.693L104.008 156.797C103.089 157.316 102.1 157.71 101.18 158.18L100.413 158.477L99.7215 158.726C99.279 158.857 98.8226 158.954 98.3732 159.079H98.2972C98.0137 159.134 97.7233 159.176 97.4398 159.224L97.2048 159.258C96.8825 159.329 96.5506 159.346 96.223 159.307C96.223 159.307 96.8314 159.307 96.4235 159.307H96.0017C95.6698 159.307 95.3103 159.252 95.0061 159.21L94.529 159.106C94.2179 159.03 93.9137 158.934 93.6094 158.83C93.1191 158.648 92.6543 158.404 92.2266 158.104C90.431 156.826 89.1491 154.951 88.6106 152.815C87.1448 147.684 89.3504 142.444 91.6389 137.929C96.5617 128.18 103.808 119.835 110.964 111.655C118.389 103.199 126.071 94.9785 133.365 86.3981C136.981 82.139 140.508 77.797 143.84 73.3029C147.173 68.8087 150.332 64.3699 152.725 59.4056C156.61 51.3231 159.466 36.6653 147.753 33.7544C144.897 33.1387 141.976 32.8763 139.056 32.9732C136.164 33.0375 133.282 33.3404 130.441 33.8789C124.481 34.9623 118.676 36.7711 113.155 39.265C103.082 43.69 93.7961 50.0716 85.2434 56.8889C76.7473 63.5715 69.0475 71.2087 62.2956 79.65C56.2113 87.3038 50.6662 95.4141 44.3537 102.861C41.2831 106.552 37.9512 110.018 34.3836 113.232C33.9549 113.612 33.5262 113.985 33.0906 114.352L32.7864 114.607L32.5375 114.815L32.4407 114.891L32.0328 115.223C31.0648 115.99 30.0761 116.737 29.0667 117.449C28.0572 118.161 26.9924 118.832 25.9208 119.523L25.5681 119.717L24.8007 120.125L24.1093 120.464C23.9503 120.52 23.7956 120.587 23.646 120.664L22.9546 120.899L22.5536 121.01L22.1872 121.065C22.0143 121.065 21.8069 121.065 21.6271 121.065H21.3091C21.0947 121.065 20.8873 121.024 20.6799 120.996L20.1544 120.885C18.1856 120.495 16.4274 119.398 15.2109 117.802C13.7935 115.845 13.5722 113.197 13.8281 110.888C14.1624 108.379 14.7035 105.902 15.446 103.483C18.1148 94.0312 22.7126 85.1812 28.3061 77.1194C33.8996 69.0576 40.703 61.5351 47.707 54.5381C51.2331 51.005 54.8492 47.5618 58.4998 44.167C62.1505 40.7722 65.9394 37.253 68.8709 33.1045C71.6365 29.2257 73.5725 25.0012 73.8145 20.196C74.0894 16.1304 72.889 12.102 70.4335 8.84999C67.1632 4.61167 61.7287 3.60914 56.6953 3.76816C51.0257 3.94101 45.3769 5.32382 40.0324 7.05925C30.451 10.1748 21.6886 15.3958 14.3881 22.3393C11.0409 25.5685 8.06975 29.166 5.53119 33.063C5.19932 33.5747 5.9253 33.9688 6.2226 34.0725C7.09898 34.2694 8.00814 34.2694 8.88451 34.0725C10.5715 33.7683 12.7287 33.2013 13.7244 31.6802C16.2419 27.9072 19.1963 24.4446 22.526 21.3644C23.3787 20.5716 24.2499 19.8042 25.1395 19.0621L25.4575 18.8062L26.1489 18.2462C26.6191 17.8798 27.1031 17.5202 27.5871 17.1676C28.5089 16.4854 29.4654 15.8286 30.4564 15.1971C30.9196 14.8929 31.3967 14.5956 31.8738 14.3121L32.503 13.9318L32.8694 13.7244C33.8789 13.1367 34.9229 12.6112 35.9531 12.1065C36.4509 11.8576 36.9556 11.6225 37.4672 11.4151L38.1033 11.1316L38.4007 11.0072C39.4654 10.5578 40.5509 10.1429 41.6433 9.76265L42.4938 9.47226H42.556C43.0746 9.31324 43.5862 9.15421 44.1117 9.00902C44.6371 8.86382 45.1833 8.71863 45.7226 8.58035L46.6007 8.37292L46.7528 8.33144C47.8867 8.13093 49.0137 7.88894 50.1546 7.723L50.9428 7.61238H51.2608C51.9522 7.55015 52.6021 7.50867 53.2797 7.48792H53.5217C53.8536 7.48792 54.2131 7.48792 54.5242 7.53632L55.3678 7.61238L55.7619 7.66769L56.0384 7.723C58.0925 8.11471 59.9964 9.0726 61.5351 10.4886C62.842 11.7964 63.8411 13.3788 64.4598 15.121C65.8378 18.8704 65.9278 22.972 64.7156 26.7782C63.2221 31.4037 60.2767 35.2617 56.9856 38.7187C53.5701 42.3141 49.8158 45.5913 46.2274 49.0207C38.9391 55.8267 32.1135 63.1119 25.7963 70.8276C19.6359 78.523 14.1599 86.8614 10.3296 95.9741C8.40377 100.489 6.93975 105.186 5.95987 109.996C5.46897 112.485 5.10252 115.195 5.81467 117.677C6.4579 119.857 7.90314 121.713 9.8594 122.87C15.0519 125.953 21.8276 124.896 27.1446 122.676C32.337 120.505 36.928 117.145 41.1732 113.474C48.4537 107.168 54.4274 99.5625 60.1938 91.9155C66.0846 84.0957 71.8371 76.1376 78.6612 69.0991C86.2115 61.3781 94.5914 54.5146 103.649 48.6335C104.75 47.9006 105.863 47.1862 106.988 46.4901C107.527 46.1514 108.074 45.7987 108.62 45.4945L109.311 45.0728L110.003 44.6856C112.298 43.3857 114.649 42.1689 117.055 41.0764L117.712 40.7791H117.746L117.857 40.7238L117.988 40.6823L118.113 40.6201C118.735 40.3574 119.364 40.1016 120 39.8596C120.637 39.6176 121.176 39.4101 121.763 39.1682L122.586 38.8778L123.008 38.7395C124.211 38.4145 125.393 38.0481 126.603 37.7369L127.295 37.571L127.564 37.5157C128.219 37.3866 128.876 37.2691 129.535 37.1631L130.524 37.0179L131.16 36.9349L131.623 36.8934C131.955 36.8612 132.287 36.8335 132.619 36.8105C133.241 36.769 133.856 36.7344 134.478 36.7206H135.405H135.875C137.186 36.7503 138.495 36.8496 139.795 37.0179H139.961L140.127 37.0594C140.39 37.1147 140.653 37.1631 140.915 37.2322C141.566 37.3842 142.202 37.5924 142.817 37.8545C147.18 39.8112 148.03 45.294 147.726 49.6637C147.373 54.7663 145.257 59.6822 142.748 64.0726C140.015 68.6796 136.961 73.0879 133.607 77.2646C126.783 86.0801 119.309 94.3562 111.863 102.632C104.416 110.908 96.9697 118.97 90.5258 127.91C87.2563 132.296 84.4503 137.009 82.1528 141.973C80.1201 146.537 78.6958 151.992 80.853 156.776C81.7739 158.936 83.4229 160.705 85.5131 161.775C88.2488 162.969 91.2628 163.379 94.2179 162.958C99.7582 162.307 105.099 160.495 109.892 157.641C113.874 155.205 117.638 152.429 121.141 149.344C122.814 147.961 124.474 146.509 126.161 145.112L126.437 144.884L127.129 144.345C127.578 143.985 128.028 143.653 128.512 143.273C129.383 142.582 130.268 141.939 131.174 141.31C132.079 140.68 132.985 140.072 133.939 139.498L134.43 139.159ZM123.07 38.7187H123.112H123.07Z" fill="white"/>
<path d="M168.703 144.435C167.598 144.591 166.528 144.939 165.543 145.465C164.935 145.811 164.126 146.26 163.898 146.972C162.515 151.3 161.015 155.592 159.397 159.846C158.59 161.943 157.756 164.029 156.894 166.103L156.451 167.141L155.4 166.29L150.374 162.252L140.19 154.073C138.841 152.987 136.186 153.686 134.769 154.273C134.112 154.55 131.063 156.023 132.411 157.108L150.706 171.814C151.411 172.447 152.197 172.984 153.043 173.412C154.896 174.207 157.295 173.757 159.099 173.08C160.33 172.684 161.432 171.968 162.294 171.006C162.862 170.2 163.326 169.327 163.677 168.406C165.188 164.921 166.62 161.404 167.97 157.855C169.482 153.854 170.888 149.812 172.188 145.728C172.651 144.082 169.471 144.303 168.703 144.435Z" fill="white"/>
</svg>
