<svg width="954" height="814" viewBox="0 0 954 814" fill="none" xmlns="http://www.w3.org/2000/svg">
<path d="M67.4905 660.307C74.0072 660.307 80.3775 662.239 85.7959 665.86C91.2143 669.48 95.4374 674.626 97.9313 680.647C100.425 686.667 101.078 693.292 99.8062 699.684C98.5349 706.075 95.3968 711.946 90.7889 716.554C86.1809 721.162 80.31 724.3 73.9185 725.571C67.5271 726.843 60.9022 726.19 54.8816 723.696C48.861 721.203 43.7151 716.979 40.0946 711.561C36.4742 706.143 34.5418 699.772 34.5418 693.256C34.5418 684.517 38.0131 676.136 44.1922 669.957C50.3713 663.778 58.752 660.307 67.4905 660.307ZM67.4905 657.196C60.3613 657.196 53.3922 659.311 47.4645 663.271C41.5367 667.232 36.9166 672.862 34.1884 679.448C31.4602 686.035 30.7463 693.282 32.1372 700.275C33.528 707.267 36.9611 713.69 42.0022 718.731C47.0433 723.772 53.4661 727.205 60.4583 728.596C67.4506 729.987 74.6982 729.273 81.2847 726.545C87.8713 723.816 93.5009 719.196 97.4617 713.269C101.422 707.341 103.537 700.372 103.537 693.242C103.53 683.685 99.7296 674.52 92.9712 667.762C86.2128 661.003 77.0484 657.203 67.4905 657.196ZM571.093 601.355H571.396C594.24 601.395 616.133 610.503 632.264 626.677C648.395 642.851 657.445 664.768 657.425 687.611C657.405 710.455 648.317 732.356 632.157 748.501C615.997 764.647 594.088 773.716 571.245 773.716C548.401 773.716 526.492 764.647 510.332 748.501C494.172 732.356 485.084 710.455 485.064 687.611C485.044 664.768 494.094 642.851 510.225 626.677C526.357 610.503 548.25 601.395 571.093 601.355ZM229.928 45.1794C243.605 45.1455 257.241 46.6665 270.574 49.7131C310.679 58.9388 340.728 80.9881 363.397 103.657C374.521 114.78 385.539 134.365 397.756 157.864C409.973 181.363 423.469 208.79 439.865 235.702C472.655 289.514 517.202 341.402 586.671 355.478C656.141 369.554 737.906 338.951 806.242 320.644C840.416 311.498 871.243 305.475 895.256 309.402C919.269 313.33 936.6 326.812 944.772 357.692C975.875 474.99 875.158 631.365 660.542 694.995C660.74 692.584 660.846 690.145 660.846 687.681C660.842 663.961 651.419 641.213 634.647 624.439C617.876 607.665 595.129 598.238 571.409 598.231H571.093C556.55 598.28 542.239 601.873 529.397 608.698C516.555 615.523 505.57 625.374 497.392 637.4C489.215 649.426 484.092 663.264 482.466 677.716C480.84 692.167 482.761 706.797 488.062 720.34C319.364 717.98 195.701 626.91 87.5498 493.138C20.2288 409.87 -3.81064 319.076 4.69014 241.963C13.1909 164.849 54.1792 101.495 117.085 72.83C160.512 53.0607 197.823 45.153 229.928 45.153V45.1794ZM231.048 42.069C227.727 42.069 224.353 42.1349 220.926 42.2667C190.416 43.5846 155.569 51.8482 115.793 69.9437C51.8333 99.1231 10.2519 163.518 1.65885 241.581C-6.93419 319.643 17.4084 411.214 85.1906 495.062C193.882 629.493 318.705 721.434 489.103 723.476C489.201 723.399 489.289 723.31 489.367 723.213C497.182 741.254 510.723 756.217 527.897 765.789C545.07 775.361 564.919 779.008 584.374 776.167C603.828 773.325 621.805 764.153 635.523 750.069C649.241 735.985 657.937 717.773 660.266 698.251H660.358C876.766 634.567 979.539 476.637 947.75 356.901C939.342 325.152 920.653 310.404 895.718 306.331C870.782 302.259 839.678 308.453 805.412 317.626C736.878 335.972 655.468 366.259 587.251 352.433C519.034 338.608 475.12 287.551 442.514 234.068C426.211 207.327 412.754 180.032 400.511 156.428C388.267 132.823 377.288 113.133 365.611 101.456C342.679 78.5235 312.102 56.0656 271.272 46.6686C258.075 43.6554 244.585 42.1128 231.048 42.069ZM737.497 3.12354C744.014 3.12354 750.385 5.05595 755.803 8.67641C761.221 12.2969 765.444 17.4428 767.938 23.4634C770.432 29.484 771.085 36.1089 769.813 42.5003C768.542 48.8918 765.404 54.7627 760.796 59.3706C756.188 63.9786 750.317 67.1167 743.925 68.388C737.534 69.6593 730.909 69.0069 724.889 66.513C718.868 64.0192 713.722 59.7961 710.102 54.3777C706.481 48.9593 704.549 42.589 704.549 36.0723C704.549 27.3338 708.02 18.9531 714.199 12.774C720.378 6.59491 728.759 3.12354 737.497 3.12354ZM737.497 0C730.368 0 723.399 2.11405 717.471 6.07483C711.544 10.0356 706.924 15.6652 704.195 22.2518C701.467 28.8383 700.753 36.086 702.144 43.0782C703.535 50.0704 706.968 56.4932 712.009 61.5343C717.05 66.5754 723.473 70.0085 730.465 71.3993C737.458 72.7902 744.705 72.0763 751.292 69.3481C757.878 66.6199 763.508 61.9998 767.469 56.072C771.429 50.1443 773.544 43.1752 773.544 36.046C773.537 26.4881 769.737 17.3238 762.978 10.5653C756.22 3.80691 747.055 0.00698163 737.497 0Z" fill="#F4CCC7"/>
<path d="M835.065 749.901C834.063 749.904 833.076 750.139 832.179 750.586C825.985 753.71 824.021 767.377 826.907 787.489C820.739 780.82 815.243 777.301 810.986 777.314C809.833 777.299 808.698 777.599 807.705 778.184C801.919 781.532 800.614 794.461 804.159 813.321H878.057C864.996 776.945 846.65 749.862 835.131 749.901H835.065Z" fill="#EF9F34"/>
<path d="M293.598 470.416C293.855 469.99 294.258 469.672 294.731 469.52C298.356 468.097 309.334 460.861 314.026 458.159C318.718 455.457 333.005 449.711 333.005 449.711L374.863 430.601L390.467 462.68C371.542 466.304 357.334 468.123 350.929 469.177C347.542 478.139 342.323 490.357 339.212 492.479C336.102 494.601 329.736 495.563 323.99 496.222C321.499 499.49 317.875 504.578 316.57 508.017C314.501 513.434 313.275 525.23 311.074 524.94C308.873 524.65 307.12 522.739 306.883 514.541C306.796 510.899 307.359 507.271 308.544 503.826C306.303 508.044 304.089 513.474 302.626 517.006C300.662 521.737 296.392 520.96 295.931 517.441C293.058 495.339 308.24 471.774 308.24 471.774C306.183 473.284 303.765 474.229 301.229 474.515C297.156 475.055 293.242 472.591 293.453 470.812C293.461 470.682 293.497 470.557 293.558 470.443L293.598 470.416Z" fill="#F9B098"/>
<path d="M308.293 471.747C308.293 471.747 317.519 475.358 324.372 473.592C331.226 471.826 342.481 474.093 342.481 474.093C342.481 474.093 327.206 476.017 324.57 478.047C321.934 480.077 315.265 489.777 315.265 489.777C314.356 490.884 305.064 493.559 308.28 471.761L308.293 471.747Z" fill="black"/>
<path d="M374.863 430.601L380.398 464.657L390.468 462.68L374.863 430.601Z" fill="black"/>
<path d="M350.982 469.177C350.982 469.177 350.982 464.05 350.665 460.268C350.349 456.485 354.922 461.902 356.438 463.378C357.954 464.854 360.524 467.767 360.524 467.767L350.982 469.177Z" fill="black"/>
<path d="M538.17 354.529C539.791 353.87 541.307 353.303 542.691 352.789C582.229 338.476 605.333 375.194 586.486 399.55C586.289 399.813 586.078 400.051 585.88 400.288C582.27 404.304 577.44 407.022 572.134 408.024C572.134 408.024 419.792 453.309 409.301 456.657C406.085 448.143 398.612 437.876 391.113 431.326C387.7 428.347 384.879 427.108 382.599 426.805L414.573 411.056C414.573 411.056 521.327 361.237 538.21 354.515L538.17 354.529Z" fill="#EF9F34"/>
<path d="M374.863 430.601L390.468 462.68C390.468 462.68 406.876 475.609 410.237 467.622C413.598 459.635 402.329 441.263 391.021 431.326C379.713 421.388 374.81 430.601 374.81 430.601H374.863Z" fill="white"/>
<path d="M464.958 667.028L480.932 768.511L508.872 765.282C508.872 765.282 511.389 688.959 508.305 662.007C505.221 635.055 467.818 641.354 464.958 667.015V667.028Z" fill="#F9B098"/>
<path d="M487.495 644.715C481.739 645.299 476.358 647.843 472.255 651.923C468.152 656.002 465.575 661.368 464.958 667.12C464.958 667.12 487.68 675.529 509.136 673.209C508.938 668.992 508.661 665.223 508.305 662.112C506.79 649.051 497.261 643.806 487.495 644.768V644.715Z" fill="black"/>
<path d="M473.116 717.756L480.932 768.523L508.872 765.294C508.872 765.294 509.281 740.609 509.188 713.578L473.116 717.756Z" fill="#EF9F34"/>
<path d="M701.122 791.416L795.026 749.716L784.667 723.555C784.667 723.555 710.295 740.873 685.056 750.837C659.818 760.8 675.593 795.278 701.122 791.416Z" fill="#F9B098"/>
<path d="M695.56 747.16C692.555 748.122 681.722 786.066 688.681 790.217C692.66 791.662 696.94 792.075 701.122 791.417L708.911 787.95C705.959 777.789 700.74 760.55 695.56 747.16Z" fill="black"/>
<path d="M748.002 770.395L795.026 749.716L784.667 723.555C784.667 723.555 760.72 729.552 734.585 736.642L747.949 770.395H748.002Z" fill="#EF9F34"/>
<path d="M770.539 727.153C777.669 734.889 786.526 747.805 789.465 752.194L795.026 749.756L784.667 723.594C784.667 723.594 779.013 725.018 770.539 727.193V727.153Z" fill="black"/>
<path d="M470.165 517.783C448.168 517.783 430.534 537.711 436.544 560.142C439.18 583.549 452.056 615.496 459.357 647.944C451.753 661.625 461.637 668.082 462.639 667.911H506.237C507.832 668.333 522.342 665.499 510.995 649.275C513.262 638.244 512.972 616.867 512.379 595.898L596.517 625.289C596.517 625.289 584.286 758.23 587.067 776.576C589.848 794.922 604.859 813.321 624.892 813.321C644.925 813.321 683.291 797.716 683.291 797.716C684.161 800.616 699.897 802.988 701.083 791.416C697.604 778.435 698.236 757.308 695.521 747.16C689.406 736.524 676.451 748.161 676.451 748.899L651.884 756.807L683.053 651.371C702.309 612.584 725.412 573.888 707.211 534.073L629.031 540.162C575.429 534.297 492.293 517.757 470.125 517.757L470.165 517.783Z" fill="#333333"/>
<path d="M509.057 750.718C499.74 755.595 484.978 760.814 480.062 762.58L480.985 768.576L508.926 765.348C508.926 765.348 509.018 759.509 509.11 750.771L509.057 750.718Z" fill="black"/>
<path d="M515.093 781.018C508.819 780.303 502.599 779.18 496.471 777.657C488.141 775.43 490.579 762.527 490.579 762.527C518.783 759.259 515.093 766.639 515.093 780.978V781.018Z" fill="white"/>
<path d="M520.155 813.321C526.402 802.487 523.594 793.13 515.094 781.018C499.133 779.568 493.11 776.682 490.58 762.566H483.489C483.489 762.566 474.026 753.908 469.097 768.959C464.168 784.01 428.623 786.659 414.824 794.487C399.233 803.344 399.259 813.36 410.975 813.36L520.155 813.321Z" fill="#333333"/>
<path d="M520.629 790.257C516.572 792.603 512.826 795.45 509.479 798.731C503.429 804.781 492.056 803.779 492.056 803.779H403.977C400.722 809.13 403.397 813.321 410.975 813.321H520.154C524.728 805.413 524.438 798.257 520.629 790.257Z" fill="black"/>
<path d="M474.988 771.015C477.855 771.059 480.612 772.124 482.764 774.019C484.904 775.791 486.355 778.259 486.862 780.991C487.092 782.41 487.004 783.863 486.606 785.244C486.207 786.625 485.507 787.9 484.556 788.978C483.815 789.991 482.786 790.758 481.604 791.179C480.706 791.441 479.744 791.375 478.889 790.995C476.451 789.716 474.381 787.832 472.879 785.525C470.453 782.127 468.436 778.456 466.869 774.586C469.049 772.445 471.936 771.175 474.988 771.015ZM454.559 764.53C453.501 764.523 452.447 764.678 451.436 764.992C450.072 765.41 448.83 766.152 447.815 767.155C446.801 768.158 446.044 769.392 445.611 770.751C444.754 773.519 445.901 779.845 447.785 783.799C448.708 783.521 449.593 783.131 450.421 782.639C448.681 778.988 447.785 773.532 448.365 771.608C448.675 770.689 449.194 769.854 449.879 769.168C450.565 768.482 451.4 767.964 452.319 767.654C459.251 764.767 463.732 774.599 463.759 774.678C465.591 779.081 467.898 783.27 470.638 787.173C472.681 789.967 475.054 792.444 477.887 793.591C479.327 794.179 480.922 794.272 482.421 793.854C484.135 793.269 485.638 792.192 486.744 790.757C487.942 789.363 488.823 787.725 489.326 785.957C489.829 784.189 489.942 782.333 489.657 780.517C489.014 777.079 487.189 773.975 484.498 771.741C481.807 769.507 478.419 768.285 474.922 768.286C471.5 768.361 468.205 769.598 465.578 771.792C464.662 769.855 463.267 768.183 461.527 766.933C459.786 765.683 457.755 764.897 455.627 764.649C455.271 764.629 454.915 764.629 454.559 764.649V764.53Z" fill="#A86DAE"/>
<path d="M452.042 775.931C451.677 775.974 451.343 776.158 451.111 776.445C450.88 776.731 450.77 777.096 450.804 777.463C450.839 777.829 451.015 778.168 451.296 778.406C451.576 778.644 451.939 778.763 452.306 778.738C452.778 778.685 453.256 778.73 453.709 778.87C454.163 779.011 454.583 779.244 454.942 779.555C455.366 779.973 455.694 780.479 455.903 781.036C456.112 781.594 456.198 782.19 456.154 782.784C456.154 783.158 456.303 783.517 456.567 783.781C456.832 784.046 457.191 784.194 457.565 784.194C457.939 784.194 458.297 784.046 458.562 783.781C458.826 783.517 458.975 783.158 458.975 782.784C459.006 781.804 458.831 780.828 458.461 779.92C458.091 779.012 457.534 778.191 456.827 777.512C456.17 776.932 455.399 776.495 454.564 776.23C453.729 775.964 452.848 775.876 451.977 775.97L452.042 775.931Z" fill="#A86DAE"/>
<path d="M442.764 781.255C442.581 781.272 442.402 781.325 442.24 781.412C442.077 781.498 441.932 781.615 441.815 781.757C441.697 781.899 441.609 782.063 441.555 782.239C441.501 782.415 441.482 782.6 441.499 782.784C441.516 782.967 441.569 783.145 441.656 783.308C441.742 783.471 441.859 783.615 442.001 783.733C442.143 783.85 442.307 783.939 442.483 783.993C442.659 784.047 442.844 784.066 443.028 784.049C443.511 783.993 444.001 784.038 444.466 784.181C444.931 784.324 445.361 784.562 445.73 784.879C446.155 785.296 446.484 785.802 446.693 786.36C446.903 786.917 446.988 787.514 446.942 788.108C446.923 788.304 446.945 788.502 447.007 788.688C447.069 788.875 447.169 789.047 447.301 789.192C447.434 789.338 447.595 789.454 447.775 789.534C447.954 789.613 448.149 789.655 448.346 789.655C448.542 789.655 448.737 789.613 448.917 789.534C449.096 789.454 449.258 789.338 449.39 789.192C449.522 789.047 449.622 788.875 449.684 788.688C449.746 788.502 449.768 788.304 449.749 788.108C449.781 787.129 449.608 786.154 449.24 785.246C448.873 784.338 448.319 783.517 447.614 782.836C446.957 782.256 446.187 781.819 445.352 781.554C444.517 781.288 443.635 781.2 442.764 781.294V781.255Z" fill="#A86DAE"/>
<path d="M512.721 629.915C508.833 634.185 503.113 639.97 498.75 641.974C491.515 645.321 494.296 649.275 494.296 649.275H511.034C512.118 642.878 512.682 636.403 512.721 629.915Z" fill="black"/>
<path d="M799.533 718.797C798.927 724.205 797.967 729.567 796.66 734.85C794.749 742.033 783.626 739.95 783.626 739.95C780.792 715.634 787.145 718.863 799.533 718.863V718.797Z" fill="white"/>
<path d="M799.533 718.797C798.307 732.544 795.83 737.736 783.625 739.885V757.216C783.625 757.216 770.657 765.374 783.625 769.618C792.258 772.425 798.558 776.062 803.83 788.939C799.963 790.972 796.218 793.23 792.614 795.7C780.146 804.846 781.161 814.322 791.191 813.15L812.278 812.991L820.871 806.52L827.368 790.837L827.276 717.255C822.9 714.738 804.963 714.83 799.428 718.731L799.533 718.797Z" fill="#333333"/>
<path d="M807.599 716.267C809.555 719.989 811.988 723.44 814.835 726.534C816.376 728.127 817.56 730.03 818.31 732.116C819.06 734.202 819.358 736.423 819.184 738.633V792.01C818.934 799.733 815.613 804.306 810.288 805.031L784.324 804.846C782.071 809.749 784.746 813.268 791.27 813.215L812.357 813.07H812.436C818.683 812.227 827.724 811.014 827.461 795.779V717.321C823.191 714.87 810.248 715.041 807.692 716.267H807.599Z" fill="black"/>
<path d="M786.776 765.729C786.223 763.32 786.545 760.793 787.685 758.599C788.735 756.446 790.507 754.73 792.693 753.749C793.832 753.259 795.066 753.03 796.305 753.08C797.543 753.13 798.755 753.458 799.85 754.039C800.848 754.456 801.7 755.157 802.301 756.056C802.701 756.759 802.84 757.58 802.697 758.375C802.126 760.673 800.978 762.787 799.362 764.517C797.015 767.238 794.361 769.679 791.454 771.792C789.219 770.403 787.565 768.248 786.802 765.729H786.776ZM785.537 784.181C785.741 785.066 786.089 785.911 786.565 786.685C787.19 787.744 788.064 788.635 789.111 789.281C790.159 789.926 791.347 790.306 792.575 790.388C795.066 790.546 799.784 788.649 802.71 786.25C802.392 785.461 802.003 784.703 801.55 783.983C798.848 786.184 794.486 788.069 792.733 787.937C791.899 787.861 791.093 787.593 790.38 787.154C789.667 786.715 789.065 786.117 788.621 785.406C784.799 780.135 792.1 774.428 792.166 774.388C795.48 771.957 798.516 769.168 801.221 766.072C803.173 764.02 804.515 761.464 805.095 758.692C805.295 757.365 805.045 756.01 804.384 754.843C803.548 753.526 802.343 752.485 800.917 751.851C799.497 751.125 797.935 750.719 796.341 750.662C794.747 750.605 793.16 750.898 791.692 751.522C788.975 752.723 786.771 754.848 785.471 757.519C784.088 760.252 783.738 763.391 784.482 766.362C785.241 769.211 786.953 771.713 789.333 773.453C787.888 774.612 786.761 776.117 786.055 777.83C785.35 779.542 785.09 781.405 785.3 783.245C785.3 783.561 785.405 783.864 785.471 784.168L785.537 784.181Z" fill="#A86DAE"/>
<path d="M794.275 779.146C794.305 779.466 794.46 779.761 794.707 779.966C794.955 780.171 795.273 780.269 795.593 780.24C795.91 780.207 796.201 780.05 796.404 779.803C796.606 779.556 796.703 779.24 796.673 778.922C796.622 778.505 796.658 778.082 796.781 777.68C796.903 777.278 797.109 776.906 797.385 776.589C797.745 776.224 798.18 775.941 798.66 775.761C799.141 775.581 799.655 775.509 800.166 775.548C800.468 775.517 800.747 775.375 800.95 775.15C801.153 774.925 801.265 774.632 801.265 774.329C801.265 774.026 801.153 773.734 800.95 773.508C800.747 773.283 800.468 773.141 800.166 773.11C799.316 773.079 798.469 773.229 797.68 773.549C796.892 773.869 796.18 774.353 795.593 774.968C795.093 775.534 794.718 776.198 794.491 776.918C794.264 777.637 794.191 778.396 794.275 779.146Z" fill="#A86DAE"/>
<path d="M797.715 784.049C797.748 784.367 797.905 784.66 798.151 784.864C798.397 785.069 798.714 785.169 799.033 785.143C799.353 785.113 799.647 784.957 799.852 784.71C800.057 784.463 800.156 784.145 800.127 783.825C800.078 783.409 800.117 782.988 800.242 782.588C800.367 782.188 800.575 781.819 800.852 781.505C801.21 781.137 801.645 780.853 802.125 780.673C802.606 780.493 803.121 780.422 803.632 780.464C803.952 780.461 804.257 780.332 804.481 780.105C804.706 779.878 804.832 779.571 804.832 779.252C804.834 779.093 804.804 778.935 804.745 778.787C804.685 778.639 804.597 778.504 804.486 778.391C804.375 778.277 804.242 778.186 804.096 778.123C803.949 778.061 803.792 778.028 803.632 778.026C802.778 777.996 801.927 778.145 801.135 778.466C800.342 778.786 799.626 779.269 799.033 779.884C798.536 780.452 798.162 781.116 797.935 781.835C797.708 782.554 797.633 783.313 797.715 784.062V784.049Z" fill="#A86DAE"/>
<path d="M491.739 570.198C491.287 570.193 490.839 570.278 490.421 570.449C489.997 570.64 489.617 570.915 489.302 571.257C488.987 571.599 488.745 572.001 488.589 572.439C488.15 573.401 487.801 574.403 487.548 575.43C486.787 578.469 486.206 581.549 485.808 584.656C484.754 592.023 483.884 601.579 483.172 611.015C481.775 629.954 481.077 648.616 481.077 648.616C481.064 648.748 481.064 648.88 481.077 649.012L485.307 667.924H488.497L484.174 648.55C484.174 648.379 484.859 630.02 486.243 611.239C486.942 601.803 487.798 592.3 488.879 585.065C489.223 582.077 489.738 579.111 490.421 576.182C490.626 575.349 490.908 574.537 491.265 573.757C491.331 573.604 491.42 573.462 491.528 573.335C491.923 573.306 492.319 573.306 492.714 573.335C493.61 573.453 494.863 573.677 496.378 574.02C499.396 574.719 503.495 575.826 508.24 577.223C517.755 580.03 529.946 583.997 541.966 588.017C566.006 596.083 589.412 604.412 589.412 604.412C589.605 604.485 589.811 604.519 590.017 604.511C590.223 604.504 590.425 604.455 590.612 604.369C590.8 604.283 590.968 604.16 591.107 604.008C591.246 603.856 591.354 603.678 591.424 603.484C591.494 603.29 591.525 603.084 591.514 602.878C591.504 602.673 591.453 602.471 591.364 602.285C591.274 602.099 591.149 601.933 590.995 601.796C590.841 601.658 590.662 601.553 590.467 601.486C590.467 601.486 567.086 593.144 543.02 585.065C530.988 581.032 518.77 577.065 509.189 574.244C504.405 572.821 500.279 571.701 497.129 570.989C495.561 570.633 494.23 570.383 493.176 570.238C492.704 570.165 492.229 570.121 491.752 570.106L491.739 570.198ZM595.185 535.721C597.564 537.882 600.131 539.827 602.856 541.533C616.496 550.205 640.549 558.6 683.106 562.093C681.606 568.557 681.606 575.279 683.106 581.743C684.068 585.891 685.702 589.853 687.942 593.473C687.666 594.172 681.353 610.132 674.526 627.74C671.046 636.715 667.501 646.02 664.667 653.69C661.834 661.361 659.751 667.292 659.092 670.007C657.854 675.186 656.219 687.667 654.836 699.001C653.452 710.336 652.371 720.51 652.371 720.51C652.327 720.921 652.448 721.332 652.708 721.654C652.968 721.975 653.344 722.18 653.755 722.224C654.165 722.267 654.577 722.146 654.898 721.887C655.219 721.627 655.424 721.251 655.468 720.84C655.468 720.84 656.549 710.731 657.92 699.384C659.29 688.036 661.004 675.357 662.124 670.705C662.651 668.504 664.76 662.389 667.593 654.745C670.427 647.101 673.959 637.809 677.425 628.834C683.58 612.926 688.799 599.76 690.064 596.57C693.798 601.439 698.439 605.539 703.731 608.643L704.891 605.743C692.924 598.429 688.022 589.177 686.137 581.032C684.721 574.876 684.78 568.472 686.308 562.343C694.796 562.976 704.021 563.415 713.985 563.661C713.985 562.62 713.985 561.592 713.893 560.538C651.949 559.22 620.45 549.019 604.595 538.95C603.356 538.172 602.236 537.381 601.182 536.617C599.218 536.327 597.228 536.063 595.251 535.76L595.185 535.721Z" fill="#A96EAE"/>
<path d="M676.489 748.899V773.584C676.489 773.584 673.076 774.164 671.508 768.313C669.939 762.461 663.442 753.169 663.442 753.169L676.489 748.939V748.899Z" fill="black"/>
<path d="M596.556 625.289L601.129 590.508C583.165 606.468 549.057 602.699 512.444 595.898L596.582 625.289H596.556Z" fill="black"/>
<path d="M651.923 756.846L636.108 767.68C636.108 767.68 631.099 766.006 636.108 758.784C641.116 751.561 643.897 722.066 655.02 705.947C666.144 689.829 683.145 651.371 683.145 651.371L651.976 756.807L651.923 756.846Z" fill="black"/>
<path d="M578.46 213.323C578.46 213.323 581.096 242.608 571.87 259.874C534.071 330.252 604.582 316.809 604.582 316.809C604.582 316.809 597.663 217.58 578.513 213.323H578.46Z" fill="#DA891D"/>
<path d="M591.732 517.348C591.179 517.348 578.184 537.645 587.396 538.923C638.902 546.053 664.496 548.057 714.816 538.923C723.409 537.368 703.771 514.264 703.205 514.291L591.732 517.348Z" fill="white"/>
<path d="M644.028 326.536L727.389 357.125C727.389 357.125 694.638 446.878 697.748 488.789C702.045 509.876 715.33 519.246 706.974 524.716C659.132 530.66 640.272 534.601 587.238 524.716C576.694 499.886 581.755 497.645 579.33 481.369C579.33 481.369 549.202 365.455 547.502 357.125C556.253 351.405 596.266 328.012 596.266 328.012L644.002 326.536H644.028Z" fill="#F48032"/>
<path d="M644.028 326.536L596.292 328.012C596.292 328.012 581.241 336.829 567.495 345C585.551 373.745 602.117 387.174 610.249 388.347C618.381 389.52 660.964 369.751 682.367 340.598L644.028 326.536Z" fill="#F9B098"/>
<path d="M653.847 475.622C653.847 475.622 660.108 491.622 675.475 495.945C683.845 498.066 692.415 499.303 701.043 499.635C699.655 496.12 698.574 492.491 697.814 488.789C697.696 487.299 697.643 485.744 697.617 484.149C684.833 483.754 666.197 482.014 653.847 475.622Z" fill="black"/>
<path d="M638.44 322.12C638.44 322.12 640.127 390.983 646.348 432.736C652.569 474.489 646.756 486.535 667.435 488.419C675.468 489.269 683.543 489.647 691.619 489.553C700.133 489.25 718.097 490.673 708.621 467.899C712.667 445.771 720.377 408.104 724.516 397.375C730.183 382.707 733.741 365.745 727.336 357.125C720.931 348.506 649.432 326.997 638.387 322.12H638.44Z" fill="#EF9F34"/>
<path d="M635.857 267.069L637.359 321.106C637.359 361.488 593.867 361.316 593.867 328.064L601.774 290.265L635.83 267.122L635.857 267.069Z" fill="#F9B098"/>
<path d="M623.112 275.689L601.814 290.186L598.335 306.819C605.135 307.372 614.796 306.819 622.308 300.901C635.29 290.74 623.112 275.702 623.112 275.702V275.689Z" fill="black"/>
<path d="M582.888 220.612L587.303 274.648C587.303 274.648 591.257 295.801 606.98 295.801C618.17 295.801 635.857 274.832 635.975 263.92C636.094 253.007 635.975 235.478 635.975 218.411C635.975 201.343 580.621 193.488 582.822 220.664L582.888 220.612Z" fill="#F9B098"/>
<path d="M592.167 245.02C592.167 245.02 586.408 252.216 583.851 252.216C581.294 252.216 583.047 258.924 588.174 258.608C593.301 258.292 596.24 240.934 592.128 245.02H592.167Z" fill="black"/>
<path d="M596.661 212.915C596.661 212.915 603.053 245.639 618.104 254.852C633.155 264.064 641.617 256.354 641.617 256.354L631.442 264.829C631.442 264.829 608.51 263.827 599.284 235.676C590.058 207.524 597.966 199.933 597.966 199.933L596.648 212.915H596.661Z" fill="#DA891D"/>
<path d="M597.979 353.922C597.979 353.922 600.51 397.757 602.183 427.293C603.857 456.828 603.146 476.373 603.146 476.373C603.146 476.373 584.694 383.84 585.841 366.337C586.987 348.835 593.274 352.986 597.979 353.922Z" fill="black"/>
<path d="M596.292 328.012C596.292 328.012 546.434 349.797 544.457 353.25C542.796 356.176 558.796 432.565 567.047 462.97C568.536 468.505 563.646 471.853 565.913 476.677C572.503 490.515 597.32 486.258 601.788 484.663C606.256 483.069 605.32 475.886 603.422 466.568C601.524 457.25 587.04 358.496 588.45 351.129C589.86 343.761 596.266 328.012 596.266 328.012H596.292Z" fill="#EF9F34"/>
<path d="M638.44 322.12C638.44 322.12 622.361 332.163 607.046 332.255C592.272 333.204 598.163 320.051 596.226 316.928C596.226 316.928 586.539 312.789 578.434 318.246C570.328 323.702 578.842 329.527 576.747 333.112C574.651 336.697 568.839 350.035 597.056 361.699C625.274 373.362 652.542 361.699 660.213 350.417C667.883 339.135 664.008 327.458 661.32 322.569C658.631 317.679 637.596 318.246 637.596 318.246L638.48 322.12H638.44Z" fill="white"/>
<path d="M623.534 329.58C623.534 329.58 631.442 344.604 629.28 354.621C627.119 364.637 617.55 363.003 609.168 361C604.845 359.972 603.369 361.804 602.961 363.82C614.821 367.466 627.502 367.466 639.362 363.82C641.036 357.165 639.033 346.252 623.547 329.553L623.534 329.58Z" fill="#CCDEF2"/>
<path d="M618.091 331.043C618.091 331.043 632.272 331.412 636.2 355.306C640.127 379.201 633.366 397.81 636.595 407.22C639.824 416.631 639.706 415.128 639.706 415.128C646.019 417.34 652.733 418.176 659.396 417.579C669.94 416.446 675.593 411.187 675.593 411.187C675.593 411.187 668.16 406.1 667.923 391.998C667.686 377.896 669.241 354.937 661.109 338.199C652.977 321.461 637.492 316.374 627.646 319.748C617.801 323.122 607.719 332.282 607.719 332.282C611.673 332.387 614.638 331.478 618.052 331.043H618.091Z" fill="white"/>
<path d="M622.216 184.935C619.005 184.858 615.793 185.03 612.608 185.449C612.608 185.449 613.136 186.252 613.926 187.412C607.06 185.791 599.297 187.61 591.034 195.61C591.034 195.61 580.081 183.538 571.567 188.585C563.053 193.633 578.487 213.323 578.487 213.323L582.915 220.611C582.915 216.513 584.233 207.709 593.116 212.796C600.154 216.829 608.022 254.285 630.098 249.237C631.039 249.024 631.968 248.755 632.879 248.433C633.155 254.417 632.879 260.493 631.482 264.829C627.528 276.69 616.615 300.928 628.279 314.661C639.943 328.394 672.298 322.568 679.257 306.568C686.216 290.568 663.837 268.203 665.155 252.031C666.473 235.86 673.063 213.468 656.694 197.297C646.453 187.188 631.824 185.08 622.282 184.935H622.216Z" fill="#DA891D"/>
<path d="M641.986 221.561C641.986 221.561 633.142 193.884 615.086 190.523C600.338 187.755 591.007 195.61 591.007 195.61C591.007 195.61 598.493 183.577 618.052 184.698C637.61 185.818 658.737 217.08 641.986 221.6V221.561Z" fill="black"/>
<path d="M576.839 330.305C577.022 330.753 577.108 331.235 577.093 331.718C577.077 332.202 576.959 332.677 576.747 333.112C576.005 334.389 575.463 335.771 575.139 337.211C576.314 338.076 577.577 338.814 578.908 339.412C584.747 341.942 595.172 340.875 584.246 335.563C581.463 334.296 578.949 332.506 576.839 330.292V330.305Z" fill="black"/>
<path d="M658.157 429.889C658.223 430.135 658.231 430.393 658.179 430.643C658.127 430.892 658.017 431.126 657.858 431.325C657.698 431.524 657.495 431.683 657.263 431.788C657.031 431.893 656.777 431.943 656.522 431.932C655.944 431.909 655.39 431.697 654.944 431.327C654.499 430.958 654.187 430.453 654.058 429.889C653.991 429.643 653.984 429.385 654.036 429.135C654.088 428.886 654.198 428.652 654.357 428.453C654.516 428.254 654.72 428.095 654.952 427.99C655.184 427.885 655.438 427.835 655.692 427.846C656.27 427.869 656.825 428.081 657.27 428.451C657.715 428.82 658.027 429.325 658.157 429.889Z" fill="black"/>
<path d="M659.712 450.607C659.778 450.854 659.785 451.113 659.733 451.363C659.682 451.613 659.572 451.847 659.413 452.047C659.254 452.247 659.05 452.407 658.819 452.514C658.587 452.621 658.333 452.672 658.078 452.663C657.498 452.64 656.942 452.425 656.497 452.054C656.051 451.682 655.741 451.174 655.613 450.607C655.547 450.361 655.539 450.103 655.591 449.854C655.643 449.604 655.753 449.37 655.912 449.171C656.072 448.972 656.275 448.814 656.507 448.708C656.739 448.603 656.993 448.554 657.248 448.564C657.826 448.587 658.38 448.8 658.825 449.169C659.271 449.538 659.582 450.044 659.712 450.607Z" fill="black"/>
<path d="M661.965 472.156C662.035 472.401 662.045 472.659 661.994 472.908C661.944 473.158 661.836 473.392 661.678 473.592C661.519 473.791 661.316 473.95 661.084 474.056C660.852 474.161 660.599 474.21 660.344 474.198C659.766 474.176 659.212 473.963 658.766 473.594C658.321 473.225 658.009 472.719 657.88 472.156C657.811 471.911 657.801 471.652 657.851 471.403C657.901 471.153 658.009 470.919 658.168 470.719C658.326 470.52 658.529 470.361 658.761 470.255C658.993 470.15 659.246 470.101 659.501 470.113C660.079 470.136 660.633 470.348 661.079 470.717C661.524 471.086 661.836 471.592 661.965 472.156Z" fill="black"/>
<path d="M654.823 575.141C654.864 574.427 655.111 573.74 655.534 573.164C658.17 569.21 671.179 544.011 679.758 538.62C682.209 537.155 684.744 535.835 687.35 534.666C685.773 534.236 684.227 533.699 682.724 533.058C672.8 528.881 676.2 523.833 679.218 524.505C682.236 525.177 711.574 523.332 711.574 523.332L743.903 490.568L769.893 514.989C757.085 524.223 743.514 532.349 729.327 539.279C729.327 539.279 714.829 560.643 704.905 567.8C698.526 572.439 694.361 576.327 691.251 573.282C689.564 571.622 688.141 572.781 684.108 575.417C678.309 579.187 672.707 569.777 672.707 569.777C672.707 569.777 670.902 573.005 664.417 575.918C659.146 578.29 654.849 577.579 654.823 575.114V575.141Z" fill="#F9B098"/>
<path d="M675.198 559.048C675.198 559.048 666.091 566.864 664.655 575.813C669.623 574.653 671.547 570.976 672.681 569.79L675.198 559.048Z" fill="black"/>
<path d="M716.581 352.605C716.265 352.605 715.949 352.578 715.632 352.526C684.937 350.575 667.527 390.39 701.53 415.01C720.601 428.822 774.953 459.108 774.953 459.108L749.912 484.479C752.166 484.004 755.25 484.255 759.441 485.955C768.667 489.671 779.105 496.92 784.943 503.905C793.747 497.316 802.077 490.805 808.666 485.283C814.9 480.011 829.2 467.517 815.849 449.171C812.133 444.057 802.828 434.212 795.157 426.041L730.762 359.669C726.955 355.821 721.984 353.338 716.621 352.605H716.581Z" fill="#EF9F34"/>
<path d="M717.808 516.874L711.574 523.292L723.541 532.979C723.541 532.979 725.715 534.811 725.702 531.846C725.702 529.434 721.748 520.643 717.794 516.874H717.808Z" fill="black"/>
<path d="M743.889 490.594L769.906 515.029C769.906 515.029 788.898 522.594 789.491 513.922C790.084 505.25 773.412 491.517 759.441 485.955C745.471 480.393 743.889 490.594 743.889 490.594Z" fill="white"/>
<path d="M774.954 459.108L789.702 452.69C789.702 452.69 791.02 451.82 788.463 450.357C785.906 448.894 763.422 452.571 763.422 452.571L775.007 459.161L774.954 459.108Z" fill="black"/>
<path d="M743.903 490.594L762.13 520.472L769.893 515.015L743.903 490.594Z" fill="black"/>
<path d="M654.018 20.5598C691.158 25.5153 699.303 41.3307 730.077 45.4427C731.415 45.6179 732.704 46.0556 733.872 46.7307C735.04 47.4058 736.063 48.3049 736.882 49.3765C737.701 50.4481 738.301 51.671 738.646 52.9749C738.992 54.2788 739.076 55.6382 738.894 56.9748L733.807 95.0504C733.632 96.3879 733.194 97.6775 732.519 98.8453C731.844 100.013 730.945 101.036 729.873 101.855C728.802 102.675 727.579 103.274 726.275 103.619C724.971 103.965 723.611 104.049 722.275 103.868C690.947 99.6896 685.899 84.2827 646.229 78.9846C644.891 78.811 643.6 78.3744 642.432 77.6998C641.263 77.0252 640.239 76.126 639.42 75.0541C638.6 73.9821 638.001 72.7586 637.656 71.4539C637.312 70.1493 637.229 68.7894 637.412 67.4525L642.486 29.39C642.661 28.0521 643.099 26.762 643.774 25.5935C644.449 24.4251 645.348 23.4013 646.419 22.581C647.49 21.7607 648.713 21.1598 650.017 20.813C651.321 20.4661 652.681 20.3801 654.018 20.5598Z" fill="black"/>
<path d="M647.35 8.31604C684.489 13.2715 692.634 29.0869 723.395 33.199C724.734 33.3726 726.025 33.8092 727.194 34.4836C728.364 35.158 729.388 36.0569 730.209 37.1286C731.029 38.2004 731.63 39.4238 731.976 40.7285C732.322 42.0332 732.407 43.3934 732.226 44.731L727.138 82.8067C726.963 84.1441 726.525 85.4338 725.85 86.6016C725.175 87.7694 724.276 88.7923 723.204 89.6116C722.133 90.4309 720.91 91.0304 719.606 91.3757C718.302 91.721 716.943 91.8053 715.606 91.6238C684.278 87.4459 679.231 72.039 639.56 66.7408C638.222 66.5673 636.932 66.1306 635.763 65.4561C634.594 64.7815 633.571 63.8823 632.751 62.8103C631.932 61.7384 631.332 60.5148 630.988 59.2102C630.643 57.9056 630.56 56.5456 630.743 55.2088L635.817 17.1463C635.991 15.8077 636.428 14.5166 637.102 13.3473C637.776 12.178 638.675 11.1536 639.747 10.3329C640.819 9.51227 642.042 8.9116 643.347 8.56547C644.652 8.21934 646.012 8.13458 647.35 8.31604Z" fill="#333333"/>
<path d="M697.577 54.3521C697.253 56.7753 696.218 59.0482 694.603 60.8834C692.988 62.7185 690.865 64.0334 688.502 64.662C686.139 65.2906 683.643 65.2045 681.33 64.4147C679.016 63.6249 676.988 62.1668 675.503 60.2247C674.018 58.2827 673.142 55.9439 672.986 53.5041C672.83 51.0643 673.401 48.633 674.627 46.5177C675.853 44.4023 677.678 42.6978 679.872 41.6197C682.066 40.5417 684.531 40.1384 686.954 40.4609C688.565 40.6735 690.118 41.2017 691.524 42.0153C692.93 42.8289 694.161 43.912 695.148 45.2024C696.135 46.4928 696.857 47.9652 697.274 49.5352C697.691 51.1053 697.794 52.7422 697.577 54.3521Z" fill="black"/>
<path d="M694.862 49.3701C694.54 51.7969 693.507 54.074 691.891 55.9133C690.276 57.7526 688.151 59.0714 685.786 59.7029C683.42 60.3345 680.921 60.2503 678.604 59.4612C676.286 58.6721 674.255 57.2134 672.767 55.2697C671.279 53.326 670.4 50.9845 670.243 48.5415C670.086 46.0986 670.657 43.6638 671.883 41.5452C673.11 39.4267 674.937 37.7195 677.134 36.6397C679.331 35.5599 681.799 35.1559 684.226 35.4789C687.476 35.915 690.421 37.6222 692.415 40.2261C694.409 42.8301 695.288 46.1184 694.862 49.3701Z" fill="white"/>
<path d="M657.168 20.7573C656.997 22.0752 653.821 22.6551 650.065 22.1543C646.308 21.6535 643.475 20.2169 643.58 18.9385C643.686 17.6601 646.928 17.0406 650.684 17.5415C654.44 18.0423 657.274 19.4789 657.168 20.7573Z" fill="white"/>
<path d="M716.147 77.8514C715.975 79.1694 712.799 79.7493 709.043 79.2484C705.287 78.7476 702.453 77.311 702.559 76.0326C702.73 74.7147 705.906 74.1348 709.662 74.6356C713.418 75.1364 716.252 76.573 716.147 77.8514Z" fill="white"/>
<path d="M817.273 213.086C854.176 219.241 861.846 235.307 892.396 240.407C893.732 240.626 895.012 241.107 896.161 241.823C897.31 242.539 898.306 243.475 899.092 244.578C899.877 245.68 900.436 246.928 900.737 248.248C901.038 249.568 901.074 250.934 900.844 252.269L894.531 290.147C894.314 291.483 893.834 292.764 893.119 293.914C892.403 295.064 891.467 296.061 890.364 296.846C889.261 297.632 888.013 298.191 886.692 298.491C885.371 298.791 884.004 298.827 882.67 298.595C851.5 293.402 846.953 277.837 807.546 271.26C806.209 271.045 804.927 270.566 803.776 269.851C802.625 269.136 801.628 268.2 800.842 267.096C800.056 265.993 799.497 264.744 799.198 263.422C798.898 262.101 798.865 260.733 799.098 259.399L805.411 221.521C805.632 220.186 806.114 218.908 806.83 217.76C807.547 216.612 808.483 215.618 809.586 214.834C810.689 214.05 811.936 213.492 813.255 213.192C814.574 212.892 815.94 212.856 817.273 213.086Z" fill="black"/>
<path d="M810.96 200.631C847.863 206.786 855.533 222.865 886.162 227.953C887.498 228.171 888.777 228.652 889.926 229.368C891.074 230.084 892.07 231.021 892.854 232.124C893.638 233.227 894.196 234.475 894.495 235.795C894.795 237.115 894.829 238.481 894.597 239.814L888.284 277.692C888.067 279.029 887.587 280.309 886.872 281.46C886.156 282.61 885.22 283.606 884.117 284.392C883.014 285.178 881.766 285.737 880.445 286.037C879.124 286.337 877.757 286.372 876.423 286.14C845.24 280.947 840.706 265.396 801.22 258.806C799.883 258.59 798.601 258.111 797.45 257.397C796.299 256.682 795.302 255.745 794.516 254.642C793.73 253.538 793.171 252.289 792.872 250.968C792.572 249.647 792.538 248.279 792.772 246.944L799.085 209.053C799.305 207.718 799.788 206.44 800.504 205.292C801.221 204.145 802.157 203.15 803.26 202.366C804.362 201.582 805.609 201.024 806.929 200.724C808.248 200.424 809.614 200.388 810.947 200.618L810.96 200.631Z" fill="#333333"/>
<path d="M859.671 538.942C859.269 541.352 858.16 543.59 856.486 545.371C854.812 547.152 852.648 548.397 850.266 548.948C847.885 549.499 845.394 549.332 843.108 548.468C840.821 547.604 838.842 546.082 837.421 544.093C835.999 542.105 835.199 539.74 835.122 537.297C835.044 534.854 835.693 532.442 836.985 530.368C838.277 528.293 840.156 526.648 842.383 525.641C844.61 524.633 847.085 524.309 849.497 524.708C852.733 525.247 855.623 527.049 857.531 529.718C859.439 532.387 860.209 535.705 859.671 538.942Z" fill="black"/>
<path d="M857.102 533.881C856.699 536.291 855.591 538.529 853.917 540.31C852.243 542.091 850.078 543.336 847.697 543.887C845.316 544.438 842.825 544.271 840.538 543.407C838.252 542.543 836.273 541.021 834.852 539.032C833.43 537.044 832.63 534.678 832.553 532.235C832.475 529.792 833.123 527.381 834.416 525.307C835.708 523.232 837.586 521.587 839.813 520.58C842.04 519.572 844.516 519.248 846.927 519.647C850.164 520.186 853.054 521.988 854.961 524.657C856.869 527.326 857.639 530.644 857.102 533.881Z" fill="white"/>
<path d="M820.371 213.376C820.16 214.694 816.957 215.168 813.227 214.536C809.498 213.903 806.638 212.388 806.849 211.122C807.059 209.857 810.249 209.33 813.992 209.949C817.722 210.569 820.582 212.111 820.371 213.376Z" fill="white"/>
<path d="M877.464 563.034C877.253 564.352 874.05 564.826 870.307 564.207C866.591 563.587 863.718 562.045 863.942 560.78C864.153 559.462 867.342 558.988 871.085 559.607C874.828 560.226 877.675 561.768 877.464 563.034Z" fill="white"/>
<path d="M818.209 70.4311C852.898 56.2895 867.83 65.9764 896.574 54.2598C897.822 53.7481 899.158 53.4877 900.507 53.4937C901.855 53.4997 903.189 53.772 904.432 54.2949C905.675 54.8178 906.802 55.581 907.75 56.5407C908.697 57.5005 909.445 58.6378 909.952 59.8875L924.449 95.4722C924.962 96.7204 925.224 98.0577 925.217 99.4073C925.211 100.757 924.938 102.092 924.414 103.335C923.89 104.579 923.124 105.706 922.162 106.653C921.2 107.599 920.06 108.346 918.808 108.849C889.537 120.79 877.517 109.917 840.456 125.034C839.208 125.546 837.87 125.806 836.521 125.801C835.172 125.795 833.837 125.523 832.593 125C831.349 124.477 830.22 123.714 829.272 122.754C828.323 121.794 827.574 120.656 827.066 119.406L812.568 83.8215C812.054 82.5733 811.792 81.2357 811.797 79.8858C811.802 78.5359 812.074 77.2004 812.597 75.9559C813.12 74.7115 813.884 73.5827 814.845 72.6345C815.806 71.6864 816.945 70.9376 818.196 70.4311H818.209Z" fill="black"/>
<path d="M806.334 63.1163C841.036 48.9747 855.955 58.6617 884.7 46.9451C885.948 46.4331 887.285 46.1725 888.635 46.1784C889.984 46.1842 891.319 46.4563 892.563 46.9792C893.807 47.502 894.936 48.2652 895.884 49.2251C896.833 50.1849 897.582 51.3226 898.09 52.5728L912.587 88.1574C913.099 89.4079 913.357 90.7474 913.348 92.0984C913.338 93.4495 913.06 94.7851 912.531 96.028C912.001 97.271 911.23 98.3965 910.263 99.3395C909.295 100.282 908.15 101.024 906.894 101.521C877.635 113.462 865.616 102.589 828.542 117.706C827.294 118.218 825.958 118.478 824.609 118.472C823.261 118.466 821.927 118.194 820.684 117.671C819.441 117.148 818.314 116.385 817.367 115.425C816.419 114.465 815.671 113.328 815.165 112.078L800.667 76.4935C800.155 75.2451 799.895 73.9078 799.9 72.5584C799.906 71.209 800.178 69.8741 800.701 68.6301C801.224 67.3861 801.987 66.2576 802.947 65.3091C803.907 64.3607 805.045 63.6111 806.295 63.1032L806.334 63.1163Z" fill="#333333"/>
<path d="M872.798 368.807C873.735 371.071 873.98 373.561 873.5 375.964C873.02 378.366 871.838 380.572 870.103 382.303C868.369 384.033 866.16 385.209 863.756 385.683C861.352 386.156 858.862 385.905 856.601 384.963C854.339 384.02 852.409 382.427 851.054 380.386C849.699 378.345 848.98 375.947 848.988 373.497C848.997 371.048 849.732 368.655 851.101 366.624C852.471 364.592 854.412 363.013 856.68 362.085C858.183 361.472 859.792 361.16 861.416 361.168C863.039 361.177 864.645 361.505 866.142 362.134C867.639 362.763 868.997 363.681 870.139 364.835C871.281 365.989 872.185 367.356 872.798 368.86V368.807Z" fill="black"/>
<path d="M867.962 365.842C868.889 368.108 869.124 370.598 868.635 372.998C868.147 375.397 866.958 377.598 865.218 379.322C863.479 381.045 861.267 382.214 858.863 382.68C856.459 383.145 853.971 382.888 851.713 381.939C849.456 380.99 847.531 379.393 846.181 377.35C844.832 375.306 844.119 372.909 844.133 370.46C844.147 368.011 844.887 365.622 846.259 363.594C847.632 361.566 849.575 359.991 851.843 359.067C854.879 357.832 858.281 357.851 861.303 359.121C864.325 360.391 866.72 362.808 867.962 365.842Z" fill="white"/>
<path d="M821.043 69.0341C821.53 70.2203 819.079 72.3553 815.573 73.7787C812.067 75.2021 808.825 75.3998 808.338 74.2137C807.85 73.0275 810.301 70.9056 813.807 69.469C817.326 68.0457 820.555 67.848 821.043 69.0341Z" fill="white"/>
<path d="M900.594 379.983C901.068 381.17 898.617 383.305 895.111 384.728C891.606 386.151 888.363 386.349 887.889 385.163C887.401 383.977 889.853 381.855 893.358 380.418C896.864 378.982 900.106 378.797 900.594 379.983Z" fill="white"/>
</svg>
