<svg width="511" height="522" viewBox="0 0 511 522" fill="none" xmlns="http://www.w3.org/2000/svg">
<path d="M426.379 280.132C426.379 310.41 417.4 340.008 400.579 365.183C383.757 390.358 359.848 409.98 331.875 421.567C303.902 433.154 273.121 436.185 243.424 430.278C213.728 424.372 186.45 409.791 165.041 388.381C143.631 366.972 129.05 339.694 123.144 309.998C117.237 280.301 120.268 249.52 131.855 221.547C143.442 193.574 163.064 169.665 188.239 152.843C213.414 136.022 243.012 127.043 273.29 127.043C293.395 127.041 313.303 130.999 331.877 138.692C350.452 146.385 367.329 157.661 381.545 171.877C395.761 186.093 407.037 202.97 414.73 221.545C422.423 240.119 426.381 260.027 426.379 280.132Z" fill="black"/>
<path d="M402.32 241.863C402.32 272.141 393.342 301.739 376.52 326.914C359.698 352.09 335.789 371.711 307.816 383.298C279.843 394.885 249.062 397.917 219.366 392.01C189.669 386.103 162.392 371.523 140.982 350.113C119.572 328.703 104.992 301.425 99.0847 271.729C93.1777 242.033 96.2094 211.252 107.796 183.279C119.383 155.305 139.005 131.396 164.18 114.575C189.355 97.753 218.954 88.7745 249.232 88.7745C269.336 88.7724 289.244 92.7307 307.819 100.423C326.393 108.116 343.27 119.392 357.486 133.608C371.702 147.824 382.979 164.701 390.671 183.276C398.364 201.851 402.322 221.758 402.32 241.863Z" fill="#F28544"/>
<path d="M243.662 135.389C241.99 135.385 240.334 135.711 238.788 136.349C237.243 136.987 235.838 137.924 234.656 139.106C233.474 140.288 232.537 141.693 231.899 143.238C231.261 144.784 230.935 146.44 230.939 148.112V157.569C204.806 162.73 190.107 181.905 192.312 206.094C193.945 223.407 206.276 240.148 236.9 252.071C268.603 265.056 259.848 286.73 241 286.73C227.934 286.73 211.813 281.046 203.124 276.228C186.791 268.061 176.207 297.787 198.338 309.955C206.636 314.643 218.33 318.122 231.004 319.755V329.555C231.004 332.929 232.345 336.165 234.731 338.551C237.117 340.938 240.353 342.278 243.728 342.278C247.102 342.278 250.338 340.938 252.724 338.551C255.111 336.165 256.451 332.929 256.451 329.555V319.755C287.729 315.9 303.915 297.281 301.416 270.577C299.374 248.723 285.458 233.403 257.741 222.329C224.977 209.034 228.505 189.663 250.147 189.663C262.07 189.663 273.568 194.204 280.722 197.83C296.94 205.147 310.121 178.361 285.622 164.952C276.422 160.517 266.516 157.731 256.353 156.72V148.08C256.357 146.407 256.031 144.75 255.394 143.203C254.756 141.657 253.819 140.251 252.637 139.068C251.455 137.884 250.051 136.945 248.505 136.306C246.959 135.666 245.302 135.338 243.63 135.34L243.662 135.389Z" fill="white"/>
<path d="M268.913 0.119991C231.444 -1.01651 194.17 5.93143 159.627 20.4911C125.084 35.0507 94.0828 56.8803 68.7323 84.4947C43.3818 112.109 24.2771 144.86 12.7181 180.52C1.15917 216.179 -2.58285 253.91 1.74671 291.145C6.07627 328.38 18.3758 364.246 37.8084 396.302C57.2411 428.357 83.3508 455.851 114.361 476.912C145.371 497.973 180.555 512.107 217.517 518.352C254.479 524.598 292.352 522.808 328.561 513.104C442.548 482.562 510.444 378.978 510.444 260.973C510.444 245.865 506.132 233.615 494.667 233.615C482.254 233.615 478.905 245.865 478.905 260.973C478.905 354.479 404.738 436.062 314.4 460.234C281.625 469.025 247.188 469.596 214.14 461.897C181.092 454.198 150.453 438.466 124.938 416.096C99.4225 393.725 79.8188 365.407 67.8636 333.65C55.9083 301.892 51.9706 267.676 56.3993 234.033C60.8281 200.39 73.4865 168.359 93.2531 140.778C113.02 113.196 139.284 90.9156 169.719 75.9105C200.155 60.9054 233.821 53.6389 267.736 54.7547C301.651 55.8704 334.767 65.3341 364.15 82.3072C367.264 84.2103 370.728 85.471 374.337 86.0151C377.946 86.5592 381.627 86.3757 385.164 85.4754C388.701 84.5752 392.022 82.9763 394.931 80.773C397.841 78.5697 400.28 75.8065 402.105 72.6462C403.931 69.4858 405.105 65.9922 405.56 62.3709C406.015 58.7497 405.74 55.0741 404.753 51.5606C403.765 48.0471 402.084 44.7667 399.81 41.9126C397.535 39.0585 394.712 36.6884 391.508 34.9418C354.149 13.3686 312.018 1.409 268.897 0.13634L268.913 0.119991Z" fill="white"/>
<path d="M365.784 21.9079C364.052 32.41 362.517 42.4057 360.704 45.607C358.271 49.8372 345.318 59.3756 334.963 68.3587C345.039 72.2455 354.797 76.909 364.15 82.3071C367.265 84.2101 370.728 85.4708 374.337 86.0149C377.946 86.559 381.627 86.3755 385.164 85.4753C388.701 84.575 392.022 82.9761 394.931 80.7729C397.841 78.5696 400.28 75.8064 402.106 72.646C403.931 69.4856 405.106 65.992 405.56 62.3708C406.015 58.7495 405.74 55.074 404.753 51.5605C403.765 48.047 402.085 44.7666 399.81 41.9124C397.535 39.0583 394.713 36.6882 391.508 34.9416C383.17 30.1135 374.572 25.7514 365.751 21.8752L365.784 21.9079Z" fill="black"/>
<path d="M334.751 95.4551C330.341 87.8113 369.181 62.7892 373.591 55.1127C378.001 47.4363 380.288 1.29578 389.107 1.29578C397.927 1.29578 419.895 36.1176 424.305 43.7614C428.715 51.4052 447.873 87.8603 443.463 95.4714C439.054 103.083 397.927 104.716 389.107 104.716C380.288 104.716 339.161 103.083 334.751 95.4714V95.4551Z" fill="white"/>
</svg>
