<svg width="640" height="640" viewBox="0 0 640 640" fill="none" xmlns="http://www.w3.org/2000/svg">
<path d="M380.71 472.71L362.11 463.41C348.47 456.6 340 442.89 340 427.64V420C340 405.05 348.35 392.14 360.53 385.27C360.3 383.53 360 381.81 360 380V340C360 295.89 395.89 260 440 260V100H366.67C336.38 100 306.9 90.18 282.67 72L240 40L197.33 72C173.1 90.18 143.62 100 113.33 100H40V378.09C40 441.32 73.17 499.91 127.39 532.44C127.39 532.43 240 600 240 600L352.61 532.43C367.61 523.43 380.92 512.38 392.44 499.85C386.31 491.88 382.24 482.63 380.71 472.71Z" fill="#333333" fill-opacity="0.85"/>
<path d="M360.53 385.27C360.3 383.53 360 381.81 360 380V340C360 321.51 366.37 304.51 376.94 290.95C363.56 227.58 307.35 180 240 180C162.68 180 100 242.68 100 320C100 397.32 162.68 460 240 460C279.28 460 314.73 443.77 340.16 417.71C340.97 403.75 348.98 391.78 360.53 385.27Z" fill="white"/>
<path d="M167.39 532.43C113.17 499.9 80 441.31 80 378.09V100H40V378.09C40 441.32 73.17 499.91 127.39 532.44L240 600L260 588L167.39 532.43Z" fill="#333333"/>
<path d="M290 400H190C184.48 400 180 395.52 180 390V310C180 304.48 184.48 300 190 300H290C295.52 300 300 304.48 300 310V390C300 395.52 295.52 400 290 400Z" fill="#F28544"/>
<path d="M200 390V310C200 304.48 204.48 300 210 300H190C184.48 300 180 304.48 180 310V390C180 395.52 184.48 400 190 400H210C204.48 400 200 395.52 200 390Z" fill="#DC9600"/>
<path d="M210 300V270C210 258.95 218.95 250 230 250H250C261.05 250 270 258.95 270 270V300H280V270C280 253.43 266.57 240 250 240H230C213.43 240 200 253.43 200 270V300H210Z" fill="#505050"/>
<path d="M260 340C260 328.95 251.05 320 240 320C228.95 320 220 328.95 220 340C220 347.38 224.05 353.76 230 357.23V370C230 375.52 234.48 380 240 380C245.52 380 250 375.52 250 370V357.23C255.95 353.76 260 347.38 260 340Z" fill="#BE7800"/>
<path d="M600 600H360V588.93C360 581.35 364.28 574.43 371.06 571.04L440 540L480 580L520 540L588.94 571.04C595.72 574.43 600 581.35 600 588.93V600Z" fill="#F28544"/>
<path d="M411.06 571.04L452.42 552.42L440 540L371.06 571.04C364.28 574.43 360 581.35 360 588.93V600H400V588.93C400 581.35 404.28 574.43 411.06 571.04Z" fill="#DC4632"/>
<path d="M440 540V496.57H520V540L480 580L440 540Z" fill="#D2AA82"/>
<path d="M580 400H560V340C560 328.95 551.05 320 540 320H420C408.95 320 400 328.95 400 340V400H380C368.95 400 360 408.95 360 420V427.64C360 435.22 364.28 442.14 371.06 445.53L400 460V463.43C400 474.04 404.21 484.21 411.72 491.71L428.29 508.28C435.79 515.78 445.97 520 456.57 520H503.43C514.04 520 524.21 515.79 531.71 508.28L548.28 491.71C555.78 484.21 560 474.03 560 463.43V460L588.94 445.53C595.72 442.14 600 435.21 600 427.64V420C600 408.95 591.05 400 580 400Z" fill="#F0C8A0"/>
<path d="M580 420C557.91 420 540 402.09 540 380V320H560C571.05 320 580 328.95 580 340V420Z" fill="#DC9600"/>
<path d="M520 280H440C406.86 280 380 306.86 380 340V380C380 391.05 388.95 400 400 400H480C524.18 400 560 364.18 560 320C560 297.91 542.09 280 520 280Z" fill="#F28544"/>
<path d="M460 425H420C417.24 425 415 422.76 415 420C415 417.24 417.24 415 420 415H460C462.76 415 465 417.24 465 420C465 422.76 462.76 425 460 425Z" fill="#BE7800"/>
<path d="M450 440C455.523 440 460 435.523 460 430C460 424.477 455.523 420 450 420C444.477 420 440 424.477 440 430C440 435.523 444.477 440 450 440Z" fill="#BE7800"/>
<path d="M540 425H500C497.24 425 495 422.76 495 420C495 417.24 497.24 415 500 415H540C542.76 415 545 417.24 545 420C545 422.76 542.76 425 540 425Z" fill="#BE7800"/>
<path d="M510 440C515.523 440 520 435.523 520 430C520 424.477 515.523 420 510 420C504.477 420 500 424.477 500 430C500 435.523 504.477 440 510 440Z" fill="#BE7800"/>
<path d="M480 485C473.32 485 467.04 482.4 462.32 477.68L456.46 471.83C454.51 469.88 454.51 466.71 456.46 464.76C458.41 462.81 461.58 462.81 463.53 464.76L469.39 470.61C475.05 476.27 484.94 476.27 490.6 470.61L496.46 464.76C498.41 462.81 501.58 462.81 503.53 464.76C505.48 466.71 505.48 469.88 503.53 471.83L497.67 477.68C492.96 482.4 486.68 485 480 485Z" fill="#BE7800"/>
</svg>
